<svg width="636.5599853515624px" height="124.439990234375px" xmlns="http://www.w3.org/2000/svg" viewBox="-68.27999267578122 12.780004882812499 636.5599853515624 124.439990234375" style="background: rgba(0, 0, 0, 0) none repeat scroll 0% 0%;" preserveAspectRatio="xMidYMid"><defs><filter id="editing-offset"><feFlood flood-color="#f00" flood-opacity="0.5" result="c1"></feFlood><feFlood flood-color="#0f0" flood-opacity="0.5" result="c2"></feFlood><feFlood flood-color="#00f" flood-opacity="0.5" result="c3"></feFlood><feComposite operator="in" in="c1" in2="SourceAlpha" result="text-c1"></feComposite><feComposite operator="in" in="c2" in2="SourceAlpha" result="text-c2"></feComposite><feComposite operator="in" in="c3" in2="SourceAlpha" result="text-c3"></feComposite><feOffset in="text-c1" dx="-10" dy="0" result="text1"></feOffset><feOffset in="text-c2" dx="10" dy="0" result="text2"></feOffset><feOffset in="text-c3" dx="0" dy="0" result="text3"></feOffset><feMerge><feMergeNode in="text1"></feMergeNode><feMergeNode in="text2"></feMergeNode><feMergeNode in="text3"></feMergeNode></feMerge></filter></defs><g filter="url(#editing-offset)"><g transform="translate(25.29501175880432, 99)"><path d="M28.42-9.86L28.42-9.86L28.42-9.86Q29.63-8.32 29.63-5.82L29.63-5.82L29.63-5.82Q29.63-2.37 27.07-0.54L27.07-0.54L27.07-0.54Q24.51 1.28 20.48 1.28L20.48 1.28L20.48 1.28Q18.18 1.28 14.66 0.77L14.66 0.77L14.66 0.77Q7.74-0.32 5.63-0.32L5.63-0.32L5.63-0.32Q3.52-0.32 2.69-0.22L2.69-0.22L2.69-0.22Q1.86-0.13 0.51 0L0.51 0L8.38-42.24L35.97-42.24L35.97-42.24Q35.97-38.34 34.08-36.29L34.08-36.29L34.08-36.29Q32.19-34.24 28.48-34.24L28.48-34.24L28.48-34.24Q24.77-34.24 20.99-35.97L20.99-35.97L19.01-24.77L30.40-24.77L30.40-24.77Q30.40-21.38 28.74-19.49L28.74-19.49L28.74-19.49Q27.07-17.60 24.29-17.60L24.29-17.60L24.29-17.60Q21.50-17.60 19.78-18.24L19.78-18.24L19.78-18.24Q18.05-18.88 17.86-19.07L17.86-19.07L15.55-6.98L15.55-6.98Q17.09-6.78 19.97-6.78L19.97-6.78L19.97-6.78Q24.90-6.78 28.42-9.86ZM62.59 1.28L62.59 1.28L62.59 1.28Q54.85 1.28 54.85-4.74L54.85-4.74L54.85-4.74Q54.91-6.40 55.42-9.22L55.42-9.22L56.58-15.10L56.58-15.10Q58.30-23.42 58.30-25.28L58.30-25.28L58.30-25.28Q58.30-28.99 56.13-28.99L56.13-28.99L56.13-28.99Q52.48-28.99 50.56-19.46L50.56-19.46L46.78 0L33.92 1.28L40.58-32.70L51.07-33.92L50.05-27.65L50.05-27.65Q53.06-33.92 62.27-33.92L62.27-33.92L62.27-33.92Q66.75-33.92 68.64-32.03L68.64-32.03L68.64-32.03Q70.53-30.14 70.53-25.92L70.53-25.92L70.53-25.92Q70.53-21.95 68.48-12.67L68.48-12.67L68.48-12.67Q67.52-8.51 67.52-6.94L67.52-6.94L67.52-6.94Q67.52-5.38 68.38-4.48L68.38-4.48L68.38-4.48Q69.25-3.58 70.53-3.46L70.53-3.46L70.53-3.46Q69.89-1.28 67.68 0L67.68 0L67.68 0Q65.47 1.28 62.59 1.28ZM95.68-17.98L95.68-17.98L95.68-17.98Q97.98-22.08 97.98-26.24L97.98-26.24L97.98-26.24Q97.98-28.99 96-28.99L96-28.99L96-28.99Q94.46-28.99 92.86-26.37L92.86-26.37L92.86-26.37Q91.20-23.74 90.69-20.35L90.69-20.35L87.36 0L74.11 1.28L80.64-32.64L91.20-33.92L90.05-27.46L90.05-27.46Q93.18-33.92 100.22-33.92L100.22-33.92L100.22-33.92Q103.94-33.92 105.95-32L105.95-32L105.95-32Q107.97-30.08 107.97-26.14L107.97-26.14L107.97-26.14Q107.97-22.21 105.38-19.71L105.38-19.71L105.38-19.71Q102.78-17.22 98.37-17.22L98.37-17.22L98.37-17.22Q96.45-17.22 95.68-17.98ZM124.35-3.52L124.35-3.52L124.35-3.52Q122.37 1.28 116.03 1.28L116.03 1.28L116.03 1.28Q112.77 1.28 110.72-0.96L110.72-0.96L110.72-0.96Q108.99-2.94 108.99-4.93L108.99-4.93L108.99-4.93Q108.99-10.11 111.36-20.22L111.36-20.22L113.73-32.64L126.72-33.92L122.82-13.70L122.82-13.70Q121.73-8.96 121.73-7.30L121.73-7.30L121.73-7.30Q121.73-3.65 124.35-3.52ZM114.88-41.54L114.88-41.54L114.88-41.54Q114.88-44.03 116.96-45.38L116.96-45.38L116.96-45.38Q119.04-46.72 122.05-46.72L122.05-46.72L122.05-46.72Q125.06-46.72 126.88-45.38L126.88-45.38L126.88-45.38Q128.70-44.03 128.70-41.54L128.70-41.54L128.70-41.54Q128.70-39.04 126.69-37.76L126.69-37.76L126.69-37.76Q124.67-36.48 121.66-36.48L121.66-36.48L121.66-36.48Q118.66-36.48 116.77-37.76L116.77-37.76L116.77-37.76Q114.88-39.04 114.88-41.54ZM161.22-26.62L161.22-26.62L161.22-26.62Q161.22-23.94 158.98-22.27L158.98-22.27L158.98-22.27Q156.74-20.61 153.09-20.61L153.09-20.61L153.09-20.61Q151.55-20.61 150.66-21.06L150.66-21.06L150.66-21.06Q151.36-22.72 151.58-24.80L151.58-24.80L151.58-24.80Q151.81-26.88 151.81-27.46L151.81-27.46L151.81-27.46Q151.81-30.14 149.95-30.14L149.95-30.14L149.95-30.14Q148.67-30.14 147.23-28.54L147.23-28.54L147.23-28.54Q145.79-26.94 144.58-24.45L144.58-24.45L144.58-24.45Q141.89-18.69 141.89-12.86L141.89-12.86L141.89-12.86Q141.89-9.66 143.10-8.22L143.10-8.22L143.10-8.22Q144.32-6.78 147.01-6.78L147.01-6.78L147.01-6.78Q150.72-6.78 153.66-9.86L153.66-9.86L153.66-9.86Q154.50-10.82 154.94-11.90L154.94-11.90L154.94-11.90Q157.38-10.62 157.38-7.10L157.38-7.10L157.38-7.10Q157.38-3.52 153.41-1.15L153.41-1.15L153.41-1.15Q149.31 1.28 142.78 1.28L142.78 1.28L142.78 1.28Q129.79 1.28 129.79-12.48L129.79-12.48L129.79-12.48Q129.79-22.53 135.49-28.29L135.49-28.29L135.49-28.29Q140.99-33.92 151.10-33.92L151.10-33.92L151.10-33.92Q161.22-33.92 161.22-26.62ZM176.90 1.28L176.90 1.28L176.90 1.28Q162.82 1.28 162.82-11.97L162.82-11.97L162.82-11.97Q162.82-21.38 168-27.46L168-27.46L168-27.46Q173.50-33.92 183.04-33.92L183.04-33.92L183.04-33.92Q189.95-33.92 193.47-30.72L193.47-30.72L193.47-30.72Q196.99-27.52 196.99-20.80L196.99-20.80L196.99-20.80Q196.99-10.56 191.49-4.61L191.49-4.61L191.49-4.61Q186.11 1.28 176.90 1.28ZM178.56-26.56L178.56-26.56L178.56-26.56Q177.79-24.83 177.18-22.24L177.18-22.24L177.18-22.24Q176.58-19.65 175.81-15.55L175.81-15.55L175.81-15.55Q175.04-11.46 175.04-6.40L175.04-6.40L175.04-6.40Q175.04-4.74 175.58-3.65L175.58-3.65L175.58-3.65Q176.13-2.56 177.60-2.56L177.60-2.56L177.60-2.56Q179.07-2.56 180-3.26L180-3.26L180-3.26Q180.93-3.97 181.63-5.63L181.63-5.63L181.63-5.63Q182.91-8.58 183.94-14.05L183.94-14.05L183.94-14.05Q184.96-19.52 185.06-21.89L185.06-21.89L185.06-21.89Q185.15-24.26 185.15-26.02L185.15-26.02L185.15-26.02Q185.15-27.78 184.64-28.93L184.64-28.93L184.64-28.93Q184.13-30.08 182.69-30.08L182.69-30.08L182.69-30.08Q181.25-30.08 180.29-29.18L180.29-29.18L180.29-29.18Q179.33-28.29 178.56-26.56ZM213.31-0.32L213.31-0.32L221.38-42.24L221.38-42.24Q228.93-42.88 233.79-42.88L233.79-42.88L233.79-42.88Q238.66-42.88 241.79-42.46L241.79-42.46L241.79-42.46Q244.93-42.05 247.04-40.96L247.04-40.96L247.04-40.96Q251.26-38.91 251.26-33.28L251.26-33.28L251.26-33.28Q251.26-30.02 248.45-27.26L248.45-27.26L248.45-27.26Q245.82-24.77 242.94-24.19L242.94-24.19L242.94-24.19Q246.02-23.68 248.19-21.38L248.19-21.38L248.19-21.38Q250.50-18.94 250.50-15.17L250.50-15.17L250.50-15.17Q250.50-7.87 245.06-3.62L245.06-3.62L245.06-3.62Q239.62 0.64 228.93 0.64L228.93 0.64L228.93 0.64Q221.57 0.64 213.31-0.32ZM230.72-20.61L227.52-4.03L227.52-4.03Q228.10-3.97 228.22-3.97L228.22-3.97L228.80-3.97L228.80-3.97Q234.05-3.97 236.29-7.42L236.29-7.42L236.29-7.42Q237.95-10.11 237.95-15.04L237.95-15.04L237.95-15.04Q237.95-17.66 236.26-19.07L236.26-19.07L236.26-19.07Q234.56-20.48 230.72-20.61L230.72-20.61ZM240.45-33.22L240.45-33.22L240.45-33.22Q240.45-38.53 235.33-38.53L235.33-38.53L234.75-38.53L234.75-38.53Q234.50-38.53 234.11-38.46L234.11-38.46L231.55-24.96L232.19-24.96L232.19-24.96Q240.45-25.15 240.45-33.22ZM275.26-2.69L275.26-2.69L275.26-2.69Q272.19 1.28 264.58 1.28L264.58 1.28L264.58 1.28Q260.61 1.28 257.73-1.12L257.73-1.12L257.73-1.12Q254.85-3.52 254.85-6.98L254.85-6.98L254.85-6.98Q254.85-8.90 255.04-9.86L255.04-9.86L259.33-32.64L272.32-33.92L267.65-9.22L267.65-9.22Q267.39-7.81 267.39-6.98L267.39-6.98L267.39-6.98Q267.39-3.26 269.63-3.26L269.63-3.26L269.63-3.26Q272.13-3.26 273.92-6.66L273.92-6.66L273.92-6.66Q274.50-7.74 274.75-9.15L274.75-9.15L279.30-32.64L291.90-33.92L287.17-8.96L287.17-8.96Q286.98-8 286.98-6.98L286.98-6.98L286.98-6.98Q286.98-5.95 287.55-4.83L287.55-4.83L287.55-4.83Q288.13-3.71 289.98-3.46L289.98-3.46L289.98-3.46Q289.60-1.92 288.26-0.90L288.26-0.90L288.26-0.90Q285.44 1.28 282.40 1.28L282.40 1.28L282.40 1.28Q279.36 1.28 277.57 0.19L277.57 0.19L277.57 0.19Q275.78-0.90 275.26-2.69ZM315.39-17.98L315.39-17.98L315.39-17.98Q317.70-22.08 317.70-26.24L317.70-26.24L317.70-26.24Q317.70-28.99 315.71-28.99L315.71-28.99L315.71-28.99Q314.18-28.99 312.58-26.37L312.58-26.37L312.58-26.37Q310.91-23.74 310.40-20.35L310.40-20.35L307.07 0L293.82 1.28L300.35-32.64L310.91-33.92L309.76-27.46L309.76-27.46Q312.90-33.92 319.94-33.92L319.94-33.92L319.94-33.92Q323.65-33.92 325.66-32L325.66-32L325.66-32Q327.68-30.08 327.68-26.14L327.68-26.14L327.68-26.14Q327.68-22.21 325.09-19.71L325.09-19.71L325.09-19.71Q322.50-17.22 318.08-17.22L318.08-17.22L318.08-17.22Q316.16-17.22 315.39-17.98ZM331.49-1.92L331.49-1.92L331.49-1.92Q329.98-3.58 329.31-6.21L329.31-6.21L329.31-6.21Q328.64-8.83 328.64-13.12L328.64-13.12L328.64-13.12Q328.64-17.41 330.11-21.31L330.11-21.31L330.11-21.31Q331.58-25.22 334.27-28.03L334.27-28.03L334.27-28.03Q339.78-33.92 348.86-33.92L348.86-33.92L348.86-33.92Q352.13-33.92 354.50-32.83L354.50-32.83L365.44-33.92L360.70-8.96L360.70-8.96Q360.51-8.19 360.51-6.78L360.51-6.78L360.51-6.78Q360.51-5.38 361.38-4.48L361.38-4.48L361.38-4.48Q362.24-3.58 363.52-3.46L363.52-3.46L363.52-3.46Q362.88-1.28 360.54 0L360.54 0L360.54 0Q358.21 1.28 355.58 1.28L355.58 1.28L355.58 1.28Q352.96 1.28 351.20 0.29L351.20 0.29L351.20 0.29Q349.44-0.70 348.93-2.37L348.93-2.37L348.93-2.37Q347.90-0.77 345.73 0.26L345.73 0.26L345.73 0.26Q343.55 1.28 340.64 1.28L340.64 1.28L340.64 1.28Q337.73 1.28 335.36 0.51L335.36 0.51L335.36 0.51Q332.99-0.26 331.49-1.92ZM344.99-27.90L344.99-27.90L344.99-27.90Q344.26-26.75 343.62-24.80L343.62-24.80L343.62-24.80Q342.98-22.85 341.92-17.63L341.92-17.63L341.92-17.63Q340.86-12.42 340.86-8.70L340.86-8.70L340.86-8.70Q340.86-4.99 341.44-3.90L341.44-3.90L341.44-3.90Q342.02-2.82 343.04-2.82L343.04-2.82L343.04-2.82Q345.09-2.82 346.59-4.77L346.59-4.77L346.59-4.77Q348.10-6.72 348.67-10.18L348.67-10.18L352.06-28.93L352.06-28.93Q350.72-30.08 349.15-30.08L349.15-30.08L349.15-30.08Q347.58-30.08 346.66-29.57L346.66-29.57L346.66-29.57Q345.73-29.06 344.99-27.90ZM369.92-6.40L369.92-6.40L369.92-6.40Q369.92-8.13 370.82-12.48L370.82-12.48L374.21-29.76L370.43-29.76L370.69-31.68L370.69-31.68Q378.37-33.98 385.79-39.62L385.79-39.62L388.86-39.62L387.33-32.64L392.32-32.64L391.74-29.76L386.82-29.76L383.55-12.48L383.55-12.48Q382.72-8.51 382.72-7.17L382.72-7.17L382.72-7.17Q382.72-4.10 385.41-3.46L385.41-3.46L385.41-3.46Q384.77-1.28 382.46 0L382.46 0L382.46 0Q380.16 1.28 376.90 1.28L376.90 1.28L376.90 1.28Q373.63 1.28 371.78-0.77L371.78-0.77L371.78-0.77Q369.92-2.82 369.92-6.40ZM393.02-6.40L393.02-6.40L393.02-6.40Q393.02-8.13 393.92-12.48L393.92-12.48L397.31-29.76L393.54-29.76L393.79-31.68L393.79-31.68Q401.47-33.98 408.90-39.62L408.90-39.62L411.97-39.62L410.43-32.64L415.42-32.64L414.85-29.76L409.92-29.76L406.66-12.48L406.66-12.48Q405.82-8.51 405.82-7.17L405.82-7.17L405.82-7.17Q405.82-4.10 408.51-3.46L408.51-3.46L408.51-3.46Q407.87-1.28 405.57 0L405.57 0L405.57 0Q403.26 1.28 400 1.28L400 1.28L400 1.28Q396.74 1.28 394.88-0.77L394.88-0.77L394.88-0.77Q393.02-2.82 393.02-6.40ZM428.80 1.28L428.80 1.28L428.80 1.28Q414.72 1.28 414.72-11.97L414.72-11.97L414.72-11.97Q414.72-21.38 419.90-27.46L419.90-27.46L419.90-27.46Q425.41-33.92 434.94-33.92L434.94-33.92L434.94-33.92Q441.86-33.92 445.38-30.72L445.38-30.72L445.38-30.72Q448.90-27.52 448.90-20.80L448.90-20.80L448.90-20.80Q448.90-10.56 443.39-4.61L443.39-4.61L443.39-4.61Q438.02 1.28 428.80 1.28ZM430.46-26.56L430.46-26.56L430.46-26.56Q429.70-24.83 429.09-22.24L429.09-22.24L429.09-22.24Q428.48-19.65 427.71-15.55L427.71-15.55L427.71-15.55Q426.94-11.46 426.94-6.40L426.94-6.40L426.94-6.40Q426.94-4.74 427.49-3.65L427.49-3.65L427.49-3.65Q428.03-2.56 429.50-2.56L429.50-2.56L429.50-2.56Q430.98-2.56 431.90-3.26L431.90-3.26L431.90-3.26Q432.83-3.97 433.54-5.63L433.54-5.63L433.54-5.63Q434.82-8.58 435.84-14.05L435.84-14.05L435.84-14.05Q436.86-19.52 436.96-21.89L436.96-21.89L436.96-21.89Q437.06-24.26 437.06-26.02L437.06-26.02L437.06-26.02Q437.06-27.78 436.54-28.93L436.54-28.93L436.54-28.93Q436.03-30.08 434.59-30.08L434.59-30.08L434.59-30.08Q433.15-30.08 432.19-29.18L432.19-29.18L432.19-29.18Q431.23-28.29 430.46-26.56Z"></path></g></g><style>text {
  font-size: 64px;
  font-family: Arial Black;
  dominant-baseline: central;
  text-anchor: middle;
}</style></svg>